<svg width="718" height="718" viewBox="0 0 718 718" fill="none" xmlns="http://www.w3.org/2000/svg">
<path d="M325.254 442.288L440.852 354.692V504.036C440.852 509.062 437.98 513.37 432.954 514.806C430.8 515.524 428.646 516.242 426.492 516.242C423.62 516.242 420.748 514.806 418.594 513.37L325.254 442.288ZM547.834 219.708C542.808 213.246 534.192 211.81 527.73 216.836L440.852 282.892V221.144C440.852 216.118 437.98 211.81 432.954 209.656C428.646 208.22 422.902 208.938 419.312 211.81L305.868 297.97H244.12C232.632 297.97 218.272 305.15 218.272 315.92V408.542C218.272 419.312 232.632 427.21 244.12 427.21H249.864L173.038 485.368C166.576 490.394 165.14 499.01 170.166 505.472C175.192 511.934 183.808 513.37 190.27 508.344L545.68 239.812C551.424 234.786 552.86 226.17 547.834 219.708Z" fill="black"/>
</svg>
