<svg width="719" height="718" viewBox="0 0 719 718" fill="none" xmlns="http://www.w3.org/2000/svg">
<path d="M374.566 209.441C372.151 208.607 369.563 208.408 367.048 208.86C364.534 209.313 362.178 210.402 360.206 212.026L246.403 298.185H183.937C172.664 298.185 161.104 304.648 161.104 315.92V408.614C161.104 419.887 172.664 427.713 183.937 427.713H246.474L359.2 513.37C361.387 515.127 364.08 516.134 366.883 516.242C369.491 516.307 372.09 515.918 374.566 515.093C378.874 512.939 383.684 508.703 383.684 503.893V220.857C383.269 218.332 382.213 215.957 380.616 213.958C379.02 211.958 376.936 210.403 374.566 209.441Z" fill="black"/>
<path d="M499.282 362.59C499.337 344.197 495.755 325.975 488.744 308.971C481.733 291.966 471.43 276.515 458.428 263.506C455.675 261.304 452.209 260.191 448.689 260.379C445.168 260.568 441.84 262.045 439.339 264.529C436.837 267.013 435.337 270.33 435.123 273.849C434.909 277.367 435.998 280.842 438.18 283.61C448.54 293.93 456.76 306.194 462.369 319.698C467.978 333.202 470.865 347.68 470.865 362.303C470.865 376.925 467.978 391.404 462.369 404.908C456.76 418.412 448.54 430.676 438.18 440.996C435.719 443.74 434.407 447.327 434.517 451.012C434.626 454.697 436.149 458.199 438.77 460.792C441.391 463.385 444.909 464.871 448.595 464.942C452.281 465.012 455.853 463.662 458.572 461.171C484.663 435 499.305 399.546 499.282 362.59Z" fill="black"/>
<path d="M556.578 362.59C556.61 310.453 535.951 260.434 499.138 223.513V223.083C496.396 220.341 492.677 218.8 488.799 218.8C484.921 218.8 481.202 220.341 478.46 223.083C475.718 225.825 474.177 229.544 474.177 233.422C474.177 237.3 475.718 241.019 478.46 243.761C494.1 259.361 506.508 277.894 514.974 298.296C523.44 318.699 527.798 340.572 527.798 362.662C527.798 384.752 523.44 406.624 514.974 427.027C506.508 447.43 494.1 465.963 478.46 481.563C475.737 484.324 474.222 488.054 474.249 491.932C474.276 495.81 475.843 499.518 478.604 502.241C481.365 504.964 485.095 506.479 488.973 506.452C492.851 506.425 496.559 504.859 499.282 502.097C500.042 501.335 500.716 500.493 501.293 499.584C536.818 462.835 556.646 413.703 556.578 362.59Z" fill="black"/>
</svg>
