<svg width="800" height="800" viewBox="0 0 800 800" fill="none" xmlns="http://www.w3.org/2000/svg">
<path d="M143 140H658V655H143V140Z" fill="#4277FF"/>
<path d="M191.667 100H608.333C658.959 100 700 141.041 700 191.667V608.333C700 658.959 658.959 700 608.333 700H191.667C141.041 700 100 658.959 100 608.333V191.667C100 141.041 141.041 100 191.667 100ZM191.667 150C168.655 150 150 168.655 150 191.667V608.333C150 631.345 168.655 650 191.667 650H608.333C631.345 650 650 631.345 650 608.333V191.667C650 168.655 631.345 150 608.333 150H191.667Z" fill="#212121"/>
</svg>
