<svg width="800" height="800" viewBox="0 0 800 800" fill="none" xmlns="http://www.w3.org/2000/svg">
<path d="M143 140H658V655H143V140Z" fill="white"/>
<path d="M191.667 100H608.333C658.959 100 700 141.041 700 191.667V608.333C700 658.959 658.959 700 608.333 700H191.667C141.041 700 100 658.959 100 608.333V191.667C100 141.041 141.041 100 191.667 100ZM191.667 150C168.655 150 150 168.655 150 191.667V608.333C150 631.345 168.655 650 191.667 650H608.333C631.345 650 650 631.345 650 608.333V191.667C650 168.655 631.345 150 608.333 150H191.667Z" fill="#212121"/>
<path d="M143 130H138.124C152.46 117.542 171.182 110 191.667 110H608.333C628.818 110 647.54 117.542 661.876 130H658H143ZM110 191.667C110 169.587 118.763 149.553 133 134.854V140V655V665H143H658H667.141C652.286 680.412 631.43 690 608.333 690H191.667C146.563 690 110 653.437 110 608.333V191.667ZM690 608.333C690 629.892 681.647 649.499 668 664.095V655V140V135.905C681.647 150.501 690 170.108 690 191.667V608.333ZM153 157.397V150H161.11C158.151 152.174 155.432 154.655 153 157.397ZM648 158.559C645.321 155.353 642.261 152.477 638.89 150H648V158.559ZM644.734 645C645.877 643.865 646.967 642.678 648 641.441V645H644.734ZM153 642.603C153.73 643.426 154.486 644.225 155.266 645H153V642.603ZM160 191.667C160 174.178 174.178 160 191.667 160H608.333C625.822 160 640 174.178 640 191.667V608.333C640 625.822 625.822 640 608.333 640H191.667C174.178 640 160 625.822 160 608.333V191.667Z" stroke="black" stroke-width="20"/>
</svg>
